<?xml version="1.0" encoding="utf-8"?>
<!-- Generator: Adobe Illustrator 15.0.2, SVG Export Plug-In . SVG Version: 6.00 Build 0)  -->
<!DOCTYPE svg PUBLIC "-//W3C//DTD SVG 1.1//EN" "http://www.w3.org/Graphics/SVG/1.1/DTD/svg11.dtd">
<svg version="1.1" id="Layer_1" xmlns="http://www.w3.org/2000/svg" xmlns:xlink="http://www.w3.org/1999/xlink" x="0px" y="0px"
	 width="323.867px" height="153.814px" viewBox="0 0 323.867 153.814" enable-background="new 0 0 323.867 153.814"
	 xml:space="preserve">
<g opacity="0.03">
	<g>
		<path fill="#231F20" d="M163.583,91.902c-0.103-0.066-0.201-0.133-0.304-0.193c-4.413-2.8-8.899-5.312-13.46-6.87
			c-2.28-0.778-4.588-1.311-6.907-1.501c-1.882-0.15-3.775-0.071-5.657,0.29c-0.437,0.082-0.875,0.188-1.313,0.306
			c-1.473,0.394-2.921,0.969-4.302,1.711c-6.684,3.595-12.686,8.772-18.497,14.624c-2.312,2.32-4.592,4.762-6.871,7.245
			c-1.48,1.612-2.963,3.261-4.458,4.913c-13.446,14.888-27.352,30.285-47.204,35.578c-0.464,0.124-0.934,0.242-1.409,0.352
			c-4.442,1.064-9.185,1.626-14.306,1.554c-0.412-0.006-0.821-0.016-1.236-0.029c-0.264-0.008-0.528-0.018-0.789-0.031
			c-3.95-0.208-7.561-1.021-10.838-2.316c-5.233-2.072-9.613-5.4-13.079-9.619c-0.925-1.122-1.781-2.306-2.568-3.546
			c-4.791-7.533-6.966-16.86-6.407-26.355c0.003-0.036,0.005-0.067,0.009-0.104c0.317-5.203,1.458-10.495,3.485-15.608
			c0.714-1.809,1.753-3.775,3.015-5.79c0.836-1.336,1.773-2.688,2.778-4.021c3.288-4.389,7.387-8.712,11.426-11.899
			c0.134-0.104,0.266-0.212,0.401-0.312c0.077-0.062,0.157-0.118,0.234-0.18c0.748-0.565,1.504-1.104,2.278-1.616
			c0.004-0.002,0.006-0.009,0.008-0.01h0.001c1.637-1.083,3.312-2.025,5.095-2.886c0.623-0.298,1.258-0.588,1.912-0.869
			c0.034-0.015,0.066-0.027,0.096-0.042c3.039-1.168,5.968-2.115,8.789-2.868c5.007-1.335,9.699-2.06,14.159-2.312
			c0.407-0.021,0.815-0.043,1.227-0.057c12.647-0.48,23.482,2.797,34.205,6.681c0.33,0.119,0.663,0.238,0.996,0.36
			c0.353,0.129,0.708,0.263,1.064,0.399c0.002,0.001,0.006,0.001,0.009,0.006c0.001,0.001,0.007,0.002,0.009,0.002
			c2.137,0.834,4.309,1.833,6.562,2.896c3.856,1.821,7.891,3.823,12.128,5.399c2.14,0.801,4.338,1.483,6.595,1.981
			c2.235,0.493,4.535,0.796,6.886,0.822c0.001-0.001,0.001-0.001,0.001-0.001c0.007,0,0.018-0.001,0.026,0.002h0.001
			c0.009-0.001,0.019-0.002,0.027-0.002c0.009-0.001,0.014-0.001,0.021-0.001c0.002,0,0.006,0.001,0.009,0
			c0.001,0.001,0.008,0,0.01,0.003c1.583,0.011,3.229-0.192,4.892-0.604c0.143-0.033,0.288-0.069,0.431-0.108h0.002
			c0.741-0.197,1.479-0.438,2.214-0.705c0.005,0,0.007-0.002,0.01-0.002c0.003-0.001,0.004-0.003,0.011-0.004
			c0.753-0.279,1.503-0.597,2.25-0.945c0.657-0.306,1.305-0.639,1.955-0.993c3.673-2.016,7.21-4.763,10.573-7.846
			c1.625-1.491,3.205-3.069,4.738-4.675l-4.124-1.319c-5.862,5.945-12.287,11.032-18.628,12.723c-0.15,0.041-0.305,0.08-0.457,0.117
			c-1.312,0.315-2.603,0.474-3.868,0.461c-1.562-0.015-3.115-0.167-4.663-0.438c-0.005,0.001-0.007,0.002-0.009-0.001
			c-0.004,0.001-0.007,0-0.014-0.001c-0.003-0.001-0.008-0.003-0.016-0.001c-0.001-0.001-0.007-0.006-0.007-0.006
			c-0.01,0.003-0.021,0-0.03-0.006c-0.002,0.001-0.002,0.001-0.002,0.001c-4.125-0.729-8.154-2.258-12.101-4.017
			c-1.126-0.499-2.247-1.018-3.362-1.546c-3.951-1.86-7.849-3.81-11.755-5.242c-0.017-0.006-0.035-0.016-0.049-0.021
			c-0.059-0.022-0.12-0.042-0.177-0.064c-1.135-0.417-2.271-0.824-3.414-1.222c-6.164-2.157-12.733-4.141-19.674-5.201
			c-0.393-0.06-0.788-0.115-1.186-0.173c-0.211-0.028-0.424-0.058-0.636-0.084c-9.315-1.188-18.432-0.544-27.851,1.967
			c-3.013,0.803-6.112,1.816-9.219,3.009l-0.065,0.027c-0.89,0.378-1.742,0.769-2.57,1.176c-2.252,1.107-4.376,2.362-6.451,3.835
			c-0.498,0.354-0.994,0.719-1.483,1.099c-1.532,1.183-3.16,2.6-4.802,4.18c-0.245,0.24-0.494,0.479-0.738,0.723
			c-2.769,2.752-5.47,5.891-7.799,9.113c-2.33,3.225-4.279,6.522-5.527,9.667c-0.167,0.429-0.332,0.855-0.489,1.288
			c-3.507,9.542-4.237,19.765-2.314,29.127c0.19,0.912,0.403,1.82,0.643,2.719c1.083,4.062,2.676,7.913,4.764,11.419
			c0.087,0.152,0.178,0.298,0.268,0.446c0.225,0.367,0.455,0.729,0.689,1.087c0.227,0.345,0.458,0.688,0.695,1.022
			c2.338,3.345,5.169,6.307,8.458,8.729c5.927,4.372,13.081,6.824,20.978,7.086c5.927,0.19,11.716-0.405,17.222-1.783
			c0.286-0.067,0.569-0.146,0.853-0.22l0.007-0.003c0.521-0.141,1.036-0.282,1.545-0.437c8.388-2.479,16.44-6.868,24.531-13.37
			c4.428-3.563,8.556-7.498,12.499-11.561c6.104-6.286,11.773-12.884,17.422-18.921c6.535-6.983,13.043-13.234,20.172-17.45
			c0.563-0.332,1.133-0.647,1.705-0.961c1.15-0.614,2.299-1.064,3.463-1.376c2.282-0.608,4.611-0.676,7.042-0.312
			c2.122,0.315,4.317,0.973,6.557,1.886c3.671,1.494,7.458,3.684,11.274,6.131L163.583,91.902z"/>
		<path fill="#231F20" d="M206.982,31.709c-0.285-0.303-0.572-0.6-0.869-0.887c-4.34-4.265-9.418-6.542-14.715-6.593
			c-1.615-0.019-3.229,0.188-4.809,0.606c-0.262,0.07-0.521,0.146-0.771,0.228c-1.758,0.551-3.373,1.332-4.858,2.247
			c-2.548,1.568-4.704,3.516-6.517,5.385c-0.812,0.831-1.558,1.65-2.229,2.41c-0.354,0.4-0.696,0.794-1.017,1.161
			c-0.415,0.477-0.812,0.926-1.159,1.315c-1.496,1.657-3.356,4-5.509,6.708c-2.496,3.145-5.381,6.776-8.531,10.4l4.131,1.174
			c1.145-1.345,2.254-2.679,3.311-3.972c1.98-2.437,3.797-4.743,5.398-6.751c1.596-2.009,2.988-3.726,4.096-4.946
			c0.809-0.891,1.699-1.952,2.709-3.071c1.512-1.68,3.28-3.502,5.285-5.049c0.996-0.771,2.053-1.478,3.168-2.074
			c1.112-0.592,2.277-1.068,3.498-1.396c1.193-0.317,2.439-0.488,3.762-0.479c0.014,0.001,0.025-0.002,0.043-0.001
			c4.455,0.062,8.604,2.021,12.334,5.83c6.959,7.111,11.4,19.808,11.375,32.453c0.002,0.171-0.002,0.34-0.004,0.511l0.002,0.001
			l-0.002,0.097c0.092,2.479,0.205,5.532,0.121,8.681c-0.014,0.454-0.031,0.906-0.054,1.359c-0.155,3.383-0.591,6.668-1.494,9.377
			l-0.048,0.174c-0.066,0.301-0.137,0.592-0.217,0.881c-0.52,1.955-1.194,3.637-2,5.278c-0.539,1.109-1.146,2.207-1.801,3.348
			c-0.205,0.354-0.406,0.707-0.619,1.069c-0.113,0.188-0.227,0.377-0.334,0.564c-0.157,0.273-0.312,0.536-0.469,0.813
			c-2.982,5.125-6.289,8.11-10.109,9.13c-7.896,2.104-17.424-4.344-27.516-11.163c-0.135-0.092-0.268-0.184-0.398-0.271
			l-1.662,3.581c1.098,0.742,2.195,1.482,3.293,2.22c2.299,1.526,4.583,3.012,6.865,4.348c3.424,2,6.82,3.683,10.229,4.674
			c1.701,0.495,3.407,0.813,5.114,0.901c1.705,0.086,3.408-0.071,5.081-0.519l0.006-0.001c1.163-0.308,2.309-0.755,3.424-1.359
			c1.674-0.901,3.267-2.146,4.774-3.729c1.506-1.595,2.931-3.525,4.278-5.849c0.369-0.649,0.744-1.278,1.106-1.907
			c1.914-3.301,3.675-6.555,4.714-10.922c0.01-0.039,0.016-0.082,0.024-0.123c0.098-0.287,0.187-0.582,0.271-0.869
			c0.941-3.295,1.317-7.035,1.43-10.629c0.101-3.183,0-6.33-0.104-9.158c0.021-1.562-0.032-3.131-0.144-4.695
			c-0.271-3.789-0.899-7.548-1.854-11.127l-0.039-0.151C214.938,43.322,211.453,36.488,206.982,31.709z"/>
	</g>
	<path fill="#231F20" d="M108.855,96.079l-0.043-0.077l-0.001-0.004c-0.088-0.146-0.174-0.293-0.258-0.438
		c-4.373-7.581-6.901-16.243-7.215-24.053l-3.922-1.799c-0.007,4.284,0.61,8.83,1.815,13.364l0.039,0.148
		c0.957,3.579,2.282,7.149,3.937,10.57c0.682,1.415,1.42,2.799,2.213,4.146c0.871,1.656,1.814,3.43,2.833,5.228l2.679-3.206
		C110.169,98.572,109.473,97.252,108.855,96.079z"/>
	<path fill="#231F20" d="M102.261,61.75c1.337-5.164,3.962-8.929,7.796-11.193c0.015-0.01,0.025-0.016,0.038-0.022
		c1.137-0.669,2.304-1.137,3.499-1.459c1.22-0.325,2.466-0.49,3.728-0.532c1.258-0.037,2.527,0.045,3.783,0.223
		c2.505,0.346,4.945,1.043,7.095,1.744c1.434,0.473,2.737,0.943,3.878,1.318c1.569,0.51,3.628,1.306,6.016,2.248
		c2.391,0.945,5.109,2.042,8.044,3.167c5.869,2.247,12.579,4.608,19.252,6.109c4.442,1.001,8.883,1.621,13.067,1.543
		c0.739-0.018,1.472-0.056,2.188-0.113c0.822-0.066,1.629-0.166,2.426-0.298c0.004-0.001,0.01-0.003,0.01-0.003
		c0.004,0,0.006,0,0.014-0.002c0.766-0.128,1.523-0.293,2.271-0.492c0.143-0.038,0.284-0.076,0.429-0.118
		c1.645-0.475,3.173-1.114,4.54-1.915c0.005-0.003,0.008-0.004,0.013-0.005c0.006-0.003,0.01-0.004,0.01-0.004
		c0.009-0.006,0.009-0.007,0.021-0.01c0.009-0.011,0.015-0.012,0.021-0.017l0.004-0.001c0.012-0.008,0.014-0.009,0.023-0.013
		c0,0,0,0,0-0.002c2.029-1.193,3.871-2.598,5.562-4.142c1.713-1.556,3.271-3.245,4.734-5.008c2.627-3.163,4.936-6.542,7.158-9.757
		l-2.251-3.525c-0.979,1.402-1.714,2.397-2.704,3.814c-0.699,1.012-1.421,2.021-2.143,3.02c-2.553,3.488-5.283,6.82-8.496,9.506
		c-0.004,0.001-0.002,0.002-0.002,0.002c-0.014,0.004-0.016,0.009-0.025,0.019l-0.006,0.002c-0.002,0.002-0.012,0.009-0.018,0.01
		c-0.004,0.008-0.006,0.011-0.008,0.013c-0.006,0.003-0.006,0.003-0.01,0.006c-1.207,1.003-2.479,1.912-3.826,2.702
		c-1.093,0.642-2.289,1.146-3.586,1.524c-0.146,0.042-0.299,0.084-0.453,0.126c-12.125,3.232-30.675-4.144-42.954-9.021
		c-3.216-1.278-5.991-2.38-8.116-3.077c-0.505-0.162-1.066-0.358-1.665-0.565c-0.462-0.156-0.949-0.324-1.459-0.496
		c-0.961-0.326-2.016-0.663-3.13-0.983c-2.505-0.712-5.345-1.33-8.336-1.425c-1.743-0.054-3.536,0.069-5.332,0.472
		c-0.261,0.057-0.521,0.119-0.781,0.188c-1.578,0.422-3.082,1.05-4.472,1.862c-4.568,2.688-7.839,7.189-9.482,13.046
		c-0.112,0.397-0.214,0.798-0.312,1.202c-0.071,0.3-0.132,0.609-0.196,0.917l3.677,1.559
		C101.931,63.159,102.083,62.446,102.261,61.75z"/>
	<g>
		<path fill="#231F20" d="M213.715,74.117c-7.912-2.159-15.656-3.651-23.203-3.438c-1.568,0.042-3.111,0.266-4.585,0.655
			c-0.44,0.119-0.866,0.246-1.292,0.391c-1.81,0.624-3.492,1.497-5.046,2.564c-1.922,1.32-3.651,2.932-5.246,4.742
			c-3.178,3.62-5.815,8.035-8.253,12.658c-0.302,0.575-0.602,1.147-0.896,1.729c-1.022,2.011-2.023,4.05-3.021,6.078
			c-5.351,10.944-10.405,21.28-18.302,23.385c-3.823,1.021-8.178,0.074-13.31-2.887c-0.274-0.16-0.546-0.312-0.813-0.464
			c-0.189-0.115-0.381-0.225-0.569-0.332c-0.362-0.208-0.72-0.414-1.072-0.618c-1.134-0.664-2.205-1.312-3.229-2.007
			c-1.516-1.021-2.94-2.145-4.365-3.581c-0.206-0.214-0.416-0.43-0.623-0.653l-0.128-0.129c-1.808-1.606-3.524-3.754-5.116-6.104
			l-2.738,2.903c1.381,1.972,2.884,3.849,4.512,5.427c0.218,0.215,0.439,0.419,0.666,0.624c0.029,0.027,0.058,0.062,0.083,0.09
			c3.079,3.272,6.224,5.218,9.524,7.128c0.63,0.364,1.264,0.724,1.913,1.104c2.324,1.341,4.521,2.311,6.622,2.938
			c2.095,0.623,4.096,0.908,5.996,0.855c1.268-0.029,2.486-0.213,3.648-0.521h0.003c1.67-0.445,3.227-1.164,4.663-2.087
			c1.436-0.927,2.756-2.05,3.989-3.325c2.458-2.556,4.568-5.706,6.542-9.143c1.311-2.298,2.56-4.725,3.789-7.195
			c1.646-3.293,3.246-6.67,4.912-9.917c2.217-4.323,4.543-8.417,7.149-11.752c1.489-1.906,3.065-3.565,4.751-4.899
			c1.92-1.522,3.979-2.626,6.26-3.23c1.16-0.312,2.383-0.494,3.688-0.532c0.647-0.017,1.302-0.02,1.959-0.013
			c6.72,0.085,13.754,1.539,21.056,3.581L213.715,74.117z"/>
		<path fill="#231F20" d="M321.507,36.548c-2.987-9.074-8.711-17.572-16.506-24.104c-0.351-0.295-0.711-0.588-1.063-0.874
			c-2.644-2.105-5.981-3.996-9.604-5.635c-3.625-1.631-7.531-3.011-11.306-4.021c-0.334-0.087-0.664-0.172-0.998-0.253
			c-2.217-0.557-4.323-0.976-6.241-1.236c-0.615-0.079-1.229-0.151-1.834-0.214c-2.527-0.247-4.996-0.272-7.507-0.111
			c-0.922,0.059-1.853,0.143-2.809,0.258l-0.076,0.012c-3.283,0.508-6.479,1.175-9.49,1.979
			c-9.422,2.513-17.646,6.492-25.125,12.161c-0.174,0.134-0.34,0.261-0.51,0.393c-0.319,0.248-0.636,0.491-0.949,0.742
			c-5.481,4.374-10.194,9.361-14.475,14.304c-0.785,0.914-1.57,1.834-2.349,2.759c-0.043,0.049-0.08,0.097-0.121,0.146
			c-0.01,0.015-0.024,0.028-0.033,0.043c-0.096,0.115-0.194,0.237-0.294,0.356l2.346,3.311c0.08-0.102,0.153-0.202,0.231-0.297
			c0.003-0.007,0.002-0.011,0.003-0.014c0,0,0.008-0.003,0.01-0.007c0.242-0.297,0.481-0.593,0.728-0.88
			c0.228-0.271,0.459-0.541,0.68-0.81c7.369-8.705,15.131-16.94,26.334-22.822c0.361-0.19,0.729-0.379,1.103-0.564
			c3.994-2.003,8.42-3.708,13.433-5.044c2.817-0.752,5.825-1.388,9.049-1.889c0.033-0.004,0.067-0.009,0.104-0.013
			c0.701-0.078,1.404-0.146,2.089-0.195c1.975-0.146,3.897-0.161,5.854-0.035l0,0c0.005,0.001,0.011,0.001,0.015,0
			c0.923,0.059,1.847,0.149,2.781,0.271c0.101,0.013,0.194,0.022,0.293,0.037c0.164,0.022,0.332,0.049,0.506,0.068
			c5.09,0.755,10.791,2.466,15.828,4.633c1.541,0.658,3.022,1.366,4.418,2.105c2.092,1.117,3.976,2.309,5.494,3.519
			c4.307,3.433,7.928,7.45,10.795,11.806c0.021,0.028,0.039,0.06,0.062,0.089c5.213,7.959,7.967,17.13,7.567,26.043
			c-0.067,1.468-0.22,2.927-0.468,4.357c-0.905,5.387-3.043,10.451-6.553,14.854c-2.194,2.754-4.924,5.256-8.242,7.405
			c-0.223,0.144-0.442,0.283-0.67,0.421c-0.354,0.22-0.701,0.435-1.06,0.644c-4.399,2.607-8.797,4.486-13.18,5.777
			c-0.464,0.139-0.931,0.271-1.394,0.394c-19.854,5.294-39.576-1.134-58.654-7.351c-2.118-0.695-4.229-1.38-6.315-2.043
			c-0.991-0.317-1.982-0.629-2.973-0.935l-0.291,4c7.479,2.335,15.215,5.034,23.149,7.309c5.442,1.559,10.978,2.915,16.599,3.802
			c10.245,1.604,19.424,1.406,27.928-0.618c0.521-0.123,1.039-0.252,1.56-0.392h0.006c0.279-0.075,0.565-0.157,0.849-0.235
			c5.465-1.548,10.785-3.909,15.83-7.025c6.719-4.158,11.704-9.852,14.661-16.591c1.646-3.745,2.621-7.719,2.988-11.784
			c0.043-0.406,0.071-0.815,0.088-1.229c0.031-0.425,0.052-0.857,0.062-1.286c0.006-0.175,0.011-0.349,0.011-0.521
			c0.067-4.082-0.472-8.214-1.556-12.276C322.068,38.333,321.802,37.438,321.507,36.548z"/>
	</g>
</g>
</svg>
