<?xml version="1.0" encoding="utf-8"?>
<!-- Generator: Adobe Illustrator 15.0.2, SVG Export Plug-In . SVG Version: 6.00 Build 0)  -->
<!DOCTYPE svg PUBLIC "-//W3C//DTD SVG 1.1//EN" "http://www.w3.org/Graphics/SVG/1.1/DTD/svg11.dtd">
<svg version="1.1" id="Layer_1" xmlns="http://www.w3.org/2000/svg" xmlns:xlink="http://www.w3.org/1999/xlink" x="0px" y="0px"
	 width="20px" height="20px" viewBox="0 0 20 20" enable-background="new 0 0 20 20" xml:space="preserve">
<g>
	<path fill="#4D4D4F" d="M16.514,15.318l-4.074-4.074c0.59-0.828,0.941-1.839,0.941-2.935c0-2.801-2.271-5.07-5.071-5.07
		c-2.8,0-5.07,2.27-5.07,5.07s2.271,5.071,5.07,5.071c1.095,0,2.106-0.353,2.935-0.94l4.073,4.072c0.33,0.331,0.865,0.331,1.195,0
		C16.844,16.184,16.844,15.648,16.514,15.318z M11.212,10.017c-0.292,0.494-0.701,0.903-1.195,1.195
		c-0.503,0.297-1.081,0.478-1.707,0.478c-1.867,0-3.38-1.514-3.38-3.38c0-1.867,1.513-3.38,3.38-3.38
		c1.867,0,3.381,1.513,3.381,3.38C11.689,8.936,11.509,9.514,11.212,10.017z"/>
</g>
</svg>
