<?xml version="1.0" encoding="utf-8"?>
<!-- Generator: Adobe Illustrator 15.0.2, SVG Export Plug-In . SVG Version: 6.00 Build 0)  -->
<!DOCTYPE svg PUBLIC "-//W3C//DTD SVG 1.1//EN" "http://www.w3.org/Graphics/SVG/1.1/DTD/svg11.dtd">
<svg version="1.1" id="Layer_1" xmlns="http://www.w3.org/2000/svg" xmlns:xlink="http://www.w3.org/1999/xlink" x="0px" y="0px"
	 width="512px" height="512px" viewBox="0 0 512 512" enable-background="new 0 0 512 512" xml:space="preserve">
<g>
	<g>
		<path fill="#FFFFFF" d="M415.443,173.171l57.541-57.593l-76.564-76.61L338.828,96.56c-9.145-4.79-18.68-8.709-28.65-11.856V3.251
			H201.82v81.453c-9.968,3.146-19.504,7.066-28.699,11.856l-57.592-57.542l-76.564,76.561l57.594,57.596
			c-4.838,9.145-8.709,18.678-11.908,28.65H3.254v108.353h81.402c3.192,9.975,7.065,19.508,11.905,28.652l-57.59,57.596
			l76.607,76.607l57.542-57.594c9.197,4.791,18.682,8.664,28.699,11.855v81.453h108.357v-81.4
			c9.971-3.195,19.506-7.117,28.65-11.906l57.592,57.59l76.611-76.602l-57.594-57.545c4.793-9.201,8.707-18.682,11.857-28.703
			h81.451V201.826h-81.451C424.152,191.853,420.232,182.319,415.443,173.171z M255.977,364.336
			c-59.813,0-108.31-48.492-108.31-108.309c0-59.868,48.494-108.31,108.31-108.31c59.867,0,108.312,48.443,108.312,108.31
			C364.285,315.844,315.844,364.336,255.977,364.336z"/>
	</g>
</g>
</svg>
