<?xml version="1.0" encoding="utf-8"?>
<!-- Generator: Adobe Illustrator 15.0.2, SVG Export Plug-In . SVG Version: 6.00 Build 0)  -->
<!DOCTYPE svg PUBLIC "-//W3C//DTD SVG 1.1//EN" "http://www.w3.org/Graphics/SVG/1.1/DTD/svg11.dtd">
<svg version="1.1" id="Layer_1" xmlns="http://www.w3.org/2000/svg" xmlns:xlink="http://www.w3.org/1999/xlink" x="0px" y="0px"
	 width="20px" height="20px" viewBox="0 0 20 20" enable-background="new 0 0 20 20" xml:space="preserve">
<g>
	<circle fill="#4D4D4F" cx="4" cy="14" r="1"/>
	<circle fill="#4D4D4F" cx="4" cy="10" r="1"/>
	<circle fill="#4D4D4F" cx="4" cy="6" r="1"/>
	<path fill="#4D4D4F" d="M17,5.5C17,5.224,16.775,5,16.5,5h-9C7.224,5,7,5.224,7,5.5v1C7,6.776,7.224,7,7.5,7h9
		C16.775,7,17,6.776,17,6.5V5.5z"/>
	<path fill="#4D4D4F" d="M17,9.5C17,9.224,16.775,9,16.5,9h-9C7.224,9,7,9.224,7,9.5v1C7,10.775,7.224,11,7.5,11h9
		c0.275,0,0.5-0.225,0.5-0.5V9.5z"/>
	<path fill="#4D4D4F" d="M17,13.5c0-0.275-0.225-0.5-0.5-0.5h-9C7.224,13,7,13.225,7,13.5v1C7,14.775,7.224,15,7.5,15h9
		c0.275,0,0.5-0.225,0.5-0.5V13.5z"/>
</g>
</svg>
