<?xml version="1.0" encoding="utf-8"?>
<!-- Generator: Adobe Illustrator 15.0.2, SVG Export Plug-In . SVG Version: 6.00 Build 0)  -->
<!DOCTYPE svg PUBLIC "-//W3C//DTD SVG 1.1//EN" "http://www.w3.org/Graphics/SVG/1.1/DTD/svg11.dtd">
<svg version="1.1" id="Layer_1" xmlns="http://www.w3.org/2000/svg" xmlns:xlink="http://www.w3.org/1999/xlink" x="0px" y="0px"
	 width="20px" height="20px" viewBox="0 0 20 20" enable-background="new 0 0 20 20" xml:space="preserve">
<path fill="#4D4D4F" d="M14.369,13.137c-1-0.171-2.369-1.141-2.369-1.562v-1.063c0-0.396,0.537-1.139,0.766-1.822
	c0.021-0.064,0.159,0.01,0.293-0.153c0.252-0.311,0.289-0.782,0.348-0.997c0.092-0.338-0.318-0.352-0.318-0.352
	s0.307-1.773,0.034-2.894C12.754,2.769,10.777,2,10.003,2C9.229,2,7.256,2.769,6.887,4.294c-0.271,1.12,0.041,2.894,0.041,2.894
	S6.532,7.201,6.623,7.539C6.681,7.754,6.747,8.226,7,8.536c0.133,0.163,0.213,0.089,0.235,0.153C7.463,9.373,8,10.115,8,10.512
	v1.063c0,0.421-1.37,1.391-2.37,1.562c-1.284,0.219-1.919,1.106-1.619,3.32c0.151,1.105,3.069,1.581,5.959,1.54
	c2.891,0.041,5.853-0.435,6.002-1.54C16.275,14.243,15.654,13.355,14.369,13.137z"/>
</svg>
