<?xml version="1.0" encoding="utf-8"?>
<!-- Generator: Adobe Illustrator 15.0.2, SVG Export Plug-In . SVG Version: 6.00 Build 0)  -->
<!DOCTYPE svg PUBLIC "-//W3C//DTD SVG 1.1//EN" "http://www.w3.org/Graphics/SVG/1.1/DTD/svg11.dtd">
<svg version="1.1" id="Layer_1" xmlns="http://www.w3.org/2000/svg" xmlns:xlink="http://www.w3.org/1999/xlink" x="0px" y="0px"
	 width="680px" height="353px" viewBox="0 0 680 353" enable-background="new 0 0 680 353" xml:space="preserve">
<g>
	<g>
		<g>
			<g>
				<g>
					<path fill="#FFFFFF" d="M337.788,141.05c-0.158-0.177-0.321-0.352-0.481-0.528c-7.049-7.636-14.377-14.769-22.348-20.096
						c-3.985-2.665-8.141-4.87-12.502-6.421c-3.534-1.257-7.213-2.073-11.009-2.338c-0.89-0.062-1.781-0.093-2.688-0.093
						c-3.035,0-6.107,0.362-9.146,1.083c-14.681,3.476-28.871,10.361-43.034,18.625c-5.627,3.286-11.264,6.794-16.913,10.405
						c-3.668,2.344-7.36,4.742-11.082,7.158c-33.464,21.721-68.067,44.176-108.93,44.176c-0.959,0-1.922-0.01-2.878-0.047
						c-9.092-0.232-18.485-1.59-28.287-4.348c-0.79-0.221-1.569-0.451-2.359-0.689c-0.503-0.15-1.002-0.309-1.498-0.469
						c-7.485-2.43-14.008-5.832-19.635-10.004C36,170.8,29.291,162.16,24.786,152.285c-1.197-2.635-2.238-5.35-3.117-8.141
						c-5.341-16.925-4.743-35.956,1.198-53.917c0.023-0.066,0.046-0.133,0.069-0.199c3.269-9.837,8.172-19.413,14.689-28.209
						c2.302-3.106,5.305-6.361,8.757-9.58c2.297-2.133,4.787-4.253,7.4-6.304c8.566-6.745,18.651-12.958,28.047-17.015
						c0.317-0.134,0.625-0.268,0.936-0.396c0.179-0.073,0.356-0.149,0.537-0.224c1.733-0.708,3.463-1.358,5.212-1.941
						c0.007-0.002,0.013-0.006,0.02-0.006h0.002c3.7-1.248,7.401-2.202,11.266-2.936c1.347-0.255,2.718-0.484,4.116-0.692
						c0.07-0.012,0.14-0.023,0.208-0.032c6.442-0.688,12.546-1.009,18.352-1.009c10.311,0,19.687,1.011,28.39,2.812
						c0.803,0.168,1.604,0.34,2.397,0.519c24.549,5.561,43.686,17.411,62.298,30.362c0.576,0.398,1.153,0.8,1.729,1.202
						c0.613,0.429,1.225,0.871,1.842,1.321c0.009,0.004,0.012,0.009,0.016,0.013c0.007,0.004,0.011,0.009,0.016,0.013
						c3.683,2.7,7.343,5.727,11.123,8.927c6.474,5.471,13.197,11.381,20.537,16.585c3.707,2.634,7.573,5.08,11.652,7.189
						c4.046,2.097,8.31,3.854,12.813,5.111c0.002,0,0.002,0,0.007,0c0.018,0.009,0.031,0.009,0.047,0.017h0.005
						c0.017,0.004,0.038,0.009,0.053,0.016c0.016,0,0.026,0.006,0.042,0.011c0.002,0,0.01,0,0.015,0.004
						c0.009,0,0.016,0.004,0.021,0.004c3.042,0.835,6.302,1.288,9.707,1.357c0.296,0.006,0.591,0.009,0.887,0.009h0.003
						c1.528,0,3.067-0.078,4.62-0.221c0.009,0,0.011,0,0.016,0c0.01,0,0.014-0.004,0.021-0.004c1.593-0.146,3.195-0.371,4.811-0.658
						c1.418-0.256,2.835-0.562,4.262-0.908c8.09-1.995,16.298-5.46,24.337-9.658c3.89-2.033,7.729-4.251,11.501-6.556l-7.252-4.664
						c-14.309,8.424-29.257,14.909-42.311,14.909c-0.312,0-0.626-0.004-0.932-0.013c-2.688-0.066-5.245-0.419-7.674-1.091
						c-2.996-0.829-5.902-1.923-8.737-3.235c-0.004,0-0.009-0.004-0.013-0.004c-0.011-0.004-0.014-0.009-0.03-0.013
						c-0.011-0.004-0.02-0.011-0.033-0.016c-0.004-0.003-0.012-0.005-0.014-0.007c-0.018-0.009-0.04-0.018-0.05-0.024
						c-0.005,0-0.005,0-0.007,0c-7.552-3.516-14.51-8.514-21.198-13.916c-1.902-1.538-3.792-3.109-5.668-4.695
						c-6.639-5.597-13.127-11.341-19.896-16.093c-0.028-0.02-0.055-0.047-0.089-0.065c-0.102-0.07-0.203-0.141-0.305-0.212
						c-1.969-1.378-3.944-2.745-5.931-4.095c-10.745-7.304-22.35-14.476-35.133-20.074c-0.727-0.315-1.459-0.626-2.197-0.935
						c-0.391-0.165-0.788-0.328-1.179-0.488c-17.284-7.062-35.129-10.497-54.518-10.497c-6.194,0-12.675,0.356-19.254,1.061
						L103.084,15c-1.896,0.272-3.735,0.585-5.537,0.943c-4.889,0.976-9.615,2.297-14.357,4.066c-1.14,0.425-2.273,0.874-3.412,1.349
						c-3.548,1.486-7.401,3.371-11.365,5.57c-0.595,0.331-1.189,0.663-1.787,1.006c-6.729,3.869-13.53,8.515-19.655,13.513
						c-6.124,5.002-11.566,10.346-15.573,15.741c-0.54,0.74-1.081,1.478-1.604,2.225c-11.625,16.541-18.263,35.804-19.367,54.775
						c-0.105,1.856-0.16,3.714-0.16,5.559c0,8.361,1.093,16.576,3.303,24.382c0.096,0.334,0.192,0.665,0.292,0.996
						c0.239,0.822,0.5,1.636,0.765,2.449c0.259,0.777,0.526,1.553,0.808,2.317c2.783,7.62,6.705,14.759,11.776,21.106
						c9.146,11.441,21.635,19.82,36.679,24.363c11.286,3.408,22.717,5.229,34.005,5.396c0.586,0.009,1.17,0.015,1.749,0.015h0.011
						c1.075,0,2.132-0.015,3.195-0.045c17.388-0.47,35.115-4.776,53.98-13.131c10.333-4.572,20.277-10.019,29.937-15.797
						c14.944-8.957,29.221-18.723,43.163-27.43c16.137-10.077,31.841-18.75,47.7-23.195c1.257-0.349,2.509-0.676,3.767-0.968
						c2.529-0.603,4.971-0.877,7.358-0.877c4.698,0,9.204,1.067,13.692,3.007c3.916,1.701,7.795,4.081,11.632,6.979
						c6.285,4.753,12.444,10.904,18.52,17.555L337.788,141.05z"/>
					<path fill="#FFFFFF" d="M452.01,47.627c-0.39-0.728-0.798-1.446-1.211-2.15c-6.156-10.413-14.747-17.388-24.902-20.204
						c-3.091-0.855-6.301-1.291-9.549-1.291c-0.539,0-1.072,0.012-1.6,0.034c-3.655,0.159-7.168,0.835-10.489,1.831
						c-5.698,1.71-10.84,4.348-15.281,7.003c-1.983,1.186-3.829,2.377-5.515,3.496c-0.894,0.59-1.746,1.165-2.55,1.708
						c-1.039,0.704-2.024,1.367-2.903,1.935c-3.726,2.422-8.494,5.967-14.014,10.069c-6.407,4.763-13.818,10.26-21.725,15.614
						l7.335,4.373c2.892-1.995,5.705-3.99,8.394-5.939c5.055-3.659,9.729-7.163,13.831-10.201c4.102-3.038,7.653-5.62,10.406-7.403
						c2.003-1.304,4.266-2.878,6.779-4.516c3.766-2.455,8.087-5.045,12.735-6.991c2.314-0.978,4.716-1.792,7.155-2.357
						c2.442-0.57,4.918-0.892,7.428-0.892c2.462,0.002,4.949,0.311,7.473,1.012c0.027,0.007,0.054,0.014,0.084,0.022
						c8.533,2.394,15.507,8.288,20.713,17.52c9.739,17.228,11.759,43.888,5.232,68.18c-0.089,0.327-0.183,0.654-0.271,0.981
						l-0.005,0.004l-0.04,0.177c-1.1,4.808-2.447,10.738-4.229,16.739c-0.257,0.864-0.519,1.728-0.796,2.59
						c-2.037,6.421-4.553,12.504-7.672,17.253l-0.187,0.309c-0.282,0.539-0.564,1.061-0.861,1.572
						c-2.006,3.492-4.157,6.377-6.549,9.125c-1.617,1.859-3.341,3.652-5.18,5.504c-0.57,0.574-1.153,1.152-1.743,1.74
						c-0.305,0.301-0.612,0.615-0.921,0.924c-0.438,0.434-0.882,0.865-1.321,1.312c-8.353,8.321-16.233,12.37-24.098,12.37
						c-16.256,0-31.259-17.275-47.152-35.554c-0.207-0.238-0.417-0.477-0.62-0.717l-5.035,6.029c1.729,1.99,3.453,3.982,5.188,5.943
						c3.63,4.121,7.273,8.141,10.97,11.879c5.557,5.599,11.226,10.562,17.258,14.21c3.019,1.826,6.134,3.312,9.37,4.354
						c3.23,1.039,6.588,1.616,10.026,1.616h0.007c2.399,0.005,4.83-0.276,7.278-0.864c3.677-0.881,7.371-2.442,11.081-4.722
						c3.714-2.282,7.438-5.274,11.22-9.045c1.052-1.047,2.091-2.071,3.111-3.098c5.365-5.355,10.414-10.703,14.646-18.561
						c0.037-0.076,0.077-0.148,0.114-0.223c0.329-0.502,0.65-1.018,0.962-1.541c3.499-5.842,6.138-12.842,8.201-19.689
						c1.821-6.061,3.239-12.159,4.483-17.652c0.833-2.992,1.542-6.032,2.128-9.097c1.427-7.417,2.137-14.956,2.146-22.332v-0.307
						C461.343,74.021,458.158,59.097,452.01,47.627"/>
					<path fill="#F26825" d="M230.492,121.042l-0.045-0.174l-0.003-0.009c-0.093-0.325-0.181-0.65-0.267-0.979
						c-4.519-16.804-4.939-34.741-1.551-49.907l-6.612-5.466c-2.211,8.226-3.347,17.279-3.357,26.607v0.307
						c0.009,7.371,0.717,14.91,2.142,22.332c0.591,3.062,1.297,6.103,2.129,9.099c0.824,3.626,1.729,7.517,2.768,11.49l6.794-4.786
						C231.731,126.507,231.071,123.612,230.492,121.042"/>
					<path fill="#F26825" d="M235.408,51.7c5.218-9.23,12.189-15.125,20.716-17.519c0.025-0.006,0.053-0.017,0.08-0.023
						c2.527-0.699,5.015-1.007,7.472-1.009c2.511,0,4.991,0.324,7.432,0.894c2.439,0.566,4.833,1.38,7.154,2.358
						c4.646,1.945,8.971,4.536,12.74,6.991c2.51,1.639,4.772,3.21,6.774,4.514c2.754,1.786,6.304,4.37,10.406,7.408
						c4.104,3.034,8.773,6.538,13.833,10.201c10.127,7.327,21.812,15.304,33.863,21.605c8.029,4.198,16.24,7.667,24.331,9.658
						c1.428,0.347,2.842,0.654,4.26,0.908c1.62,0.292,3.224,0.51,4.809,0.658c0.017,0,0.021,0.004,0.024,0.004
						c0.009,0,0.009,0,0.018,0c1.55,0.146,3.09,0.221,4.618,0.221c0.296,0,0.595-0.002,0.887-0.009
						c3.406-0.069,6.666-0.52,9.709-1.353c0.009-0.004,0.018-0.004,0.021-0.009c0.012,0,0.016-0.004,0.021-0.004
						c0.013-0.004,0.025-0.009,0.042-0.011c0.018-0.004,0.034-0.009,0.051-0.014h0.004c0.018-0.006,0.033-0.011,0.047-0.013
						c0,0,0,0,0.004,0c4.508-1.257,8.769-3.016,12.812-5.106c4.083-2.112,7.948-4.561,11.654-7.19
						c6.666-4.733,12.828-10.042,18.76-15.083l-2.509-7.932c-2.61,2.192-4.517,3.729-7.146,5.948
						c-1.878,1.591-3.771,3.16-5.67,4.695c-6.69,5.402-13.646,10.405-21.198,13.916c0,0,0,0.002-0.005,0.002
						c-0.013,0.007-0.037,0.016-0.051,0.024c-0.004,0-0.01,0.004-0.014,0.007c-0.016,0.004-0.023,0.009-0.032,0.018
						c-0.015,0-0.019,0.004-0.029,0.009c-0.009,0.004-0.009,0.004-0.019,0.009c-2.832,1.312-5.734,2.404-8.729,3.232
						c-2.431,0.672-4.989,1.028-7.679,1.094c-0.312,0.004-0.616,0.014-0.933,0.014c-24.953,0-56.821-23.678-77.914-39.348
						c-5.519-4.099-10.293-7.646-14.015-10.068c-0.887-0.57-1.864-1.233-2.905-1.933c-0.808-0.545-1.658-1.12-2.55-1.71
						c-1.684-1.116-3.532-2.308-5.517-3.493c-4.443-2.657-9.581-5.293-15.281-7.005c-3.318-0.996-6.83-1.675-10.489-1.831
						c-0.529-0.022-1.061-0.034-1.597-0.034c-3.249,0-6.457,0.438-9.549,1.293c-10.153,2.816-18.748,9.792-24.906,20.204
						c-0.418,0.706-0.817,1.424-1.21,2.15c-0.29,0.548-0.57,1.106-0.849,1.665l6.27,4.875
						C234.049,54.237,234.705,52.944,235.408,51.7"/>
					<path fill="#F26825" d="M443.22,132.565c-14.09-8.206-28.209-15.042-42.818-18.5c-3.035-0.718-6.108-1.081-9.146-1.081
						c-0.899,0-1.795,0.031-2.687,0.088c-3.796,0.27-7.473,1.087-11.01,2.342c-4.368,1.551-8.521,3.756-12.499,6.421
						c-7.973,5.327-15.302,12.459-22.35,20.096c-0.88,0.948-1.746,1.905-2.611,2.861c-2.999,3.337-5.968,6.743-8.91,10.138
						c-15.886,18.281-30.896,35.553-47.15,35.553c-7.869,0-15.749-4.043-24.089-12.371c-0.446-0.438-0.892-0.879-1.326-1.312
						c-0.312-0.312-0.618-0.615-0.926-0.926c-0.593-0.584-1.174-1.164-1.744-1.738c-1.838-1.85-3.566-3.639-5.177-5.504
						c-2.388-2.744-4.548-5.633-6.549-9.123c-0.294-0.514-0.581-1.035-0.866-1.574l-0.181-0.309
						c-2.647-4.025-4.855-9.015-6.701-14.352l-6.75,4.18c1.645,4.498,3.574,8.873,5.893,12.74c0.313,0.521,0.631,1.037,0.961,1.537
						c0.041,0.074,0.079,0.15,0.119,0.221c4.233,7.861,9.281,13.205,14.642,18.566c1.025,1.024,2.063,2.047,3.113,3.099
						c3.78,3.77,7.505,6.76,11.22,9.043c3.711,2.278,7.408,3.842,11.082,4.723c2.451,0.588,4.884,0.867,7.277,0.867h0.007
						c3.439,0,6.794-0.584,10.03-1.623c3.234-1.037,6.351-2.521,9.366-4.349c6.032-3.649,11.705-8.618,17.257-14.217
						c3.697-3.73,7.338-7.754,10.967-11.875c4.843-5.492,9.653-11.156,14.511-16.537c6.477-7.181,13.052-13.845,19.765-18.918
						c3.836-2.901,7.712-5.279,11.629-6.98c4.479-1.942,9-3.007,13.695-3.012c2.388,0,4.832,0.278,7.357,0.875
						c1.253,0.296,2.51,0.621,3.765,0.972c12.871,3.61,25.646,10,38.628,17.672L443.22,132.565z"/>
					<path fill="#F26825" d="M669.584,115.602c-1.1-18.971-7.742-38.232-19.367-54.775c-0.519-0.742-1.061-1.489-1.607-2.223
						c-4.006-5.395-9.443-10.741-15.568-15.743c-6.125-4.998-12.934-9.644-19.656-13.513c-0.601-0.341-1.193-0.676-1.785-1.006
						c-3.964-2.2-7.816-4.084-11.366-5.568c-1.131-0.475-2.274-0.926-3.41-1.351c-4.742-1.769-9.469-3.09-14.362-4.063
						c-1.801-0.358-3.643-0.672-5.532-0.946l-0.142-0.017c-6.58-0.705-13.06-1.058-19.254-1.058
						c-19.384,0-37.231,3.435-54.516,10.494c-0.396,0.16-0.793,0.326-1.18,0.488c-0.735,0.308-1.465,0.618-2.191,0.937
						c-12.787,5.596-24.394,12.77-35.137,20.071c-1.988,1.35-3.964,2.717-5.933,4.098c-0.108,0.067-0.205,0.14-0.304,0.21
						c-0.032,0.023-0.06,0.045-0.088,0.065c-0.25,0.177-0.5,0.36-0.747,0.54l2.807,7.555c0.203-0.15,0.403-0.309,0.599-0.455
						c0.005-0.004,0.014-0.009,0.019-0.013c0-0.004,0.005-0.009,0.014-0.013c0.616-0.451,1.232-0.895,1.841-1.321
						c0.57-0.402,1.16-0.802,1.729-1.202c18.611-12.954,37.752-24.799,62.298-30.362c0.797-0.178,1.595-0.351,2.395-0.518
						c8.704-1.803,18.083-2.812,28.391-2.812c5.811,0,11.922,0.32,18.354,1.006c0.066,0.009,0.135,0.02,0.215,0.032
						c1.396,0.206,2.771,0.434,4.107,0.689c3.867,0.733,7.569,1.69,11.267,2.936l0,0c0.009,0.002,0.013,0.004,0.022,0.006
						c1.747,0.585,3.473,1.233,5.207,1.941c0.182,0.076,0.362,0.151,0.542,0.224c0.312,0.128,0.621,0.262,0.937,0.396
						c9.389,4.057,19.473,10.27,28.047,17.015c2.615,2.049,5.109,4.173,7.398,6.305c3.454,3.217,6.459,6.477,8.755,9.583
						c6.519,8.792,11.423,18.37,14.697,28.207c0.022,0.068,0.047,0.135,0.063,0.201c5.943,17.961,6.543,36.992,1.195,53.916
						c-0.879,2.788-1.918,5.504-3.115,8.137c-4.5,9.877-11.216,18.52-20.209,25.183c-5.625,4.174-12.152,7.576-19.636,10.002
						c-0.495,0.156-0.997,0.317-1.498,0.469c-0.787,0.234-1.571,0.465-2.364,0.693c-9.798,2.756-19.194,4.112-28.282,4.348
						c-0.964,0.033-1.93,0.043-2.884,0.043c-40.855,0-75.463-22.453-108.924-44.174c-3.724-2.417-7.418-4.812-11.086-7.158
						c-1.747-1.119-3.495-2.219-5.243-3.317l-2.601,7.542c13.171,8.314,26.653,17.459,40.739,25.9
						c9.662,5.779,19.607,11.219,29.938,15.795c18.87,8.348,36.595,12.664,53.98,13.133c1.058,0.025,2.121,0.043,3.191,0.043h0.013
						c0.579,0,1.164-0.004,1.748-0.018c11.286-0.168,22.72-1.984,34.01-5.391c15.035-4.543,27.531-12.927,36.679-24.366
						c5.065-6.348,8.995-13.486,11.776-21.112c0.283-0.765,0.551-1.54,0.803-2.319c0.271-0.809,0.523-1.623,0.777-2.444
						c0.088-0.333,0.187-0.663,0.279-0.997c2.215-7.806,3.305-16.021,3.305-24.377C669.741,119.319,669.686,117.458,669.584,115.602
						"/>
					<g>
						<g opacity="0.94">
							<g>
								<g>
									<g>
										<defs>
											<rect id="SVGID_1_" x="34.967" y="137.36" width="610.08" height="87.177"/>
										</defs>
										<clipPath id="SVGID_2_">
											<use xlink:href="#SVGID_1_"  overflow="visible"/>
										</clipPath>
										<path clip-path="url(#SVGID_2_)" d="M65.014,139.15c0,0-13.942,0-13.942,13.941v55.717c0,0,0,13.943,13.942,13.943
											h549.985c0,0,13.942,0,13.942-13.943v-55.721c0,0,0-13.937-13.942-13.937H65.014L65.014,139.15z"/>
									</g>
								</g>
								<g>
									<g>
										<defs>
											<rect id="SVGID_3_" x="34.967" y="137.36" width="610.08" height="87.177"/>
										</defs>
										<clipPath id="SVGID_4_">
											<use xlink:href="#SVGID_3_"  overflow="visible"/>
										</clipPath>
										<path clip-path="url(#SVGID_4_)" fill="none" stroke="#FFFFFF" stroke-width="2" stroke-miterlimit="10" d="
											M65.014,139.15c0,0-13.942,0-13.942,13.941v55.717c0,0,0,13.943,13.942,13.943h549.985c0,0,13.942,0,13.942-13.943
											v-55.721c0,0,0-13.937-13.942-13.937H65.014L65.014,139.15z"/>
									</g>
								</g>
							</g>
						</g>
						<g>
							<path fill="#FFFFFF" d="M611.504,181.772v-4.172h-8.438v-21.26h6.305v5.494h4.274v-9.662h-16.986v4.172h2.133v50.858h-2.133
								v4.277h16.986v-9.768h-4.274v5.492h-6.305v-25.424h8.438V181.772z M577.629,156.335h4.174c2.133,0,4.27,2.139,4.27,4.275
								v12.717c0,2.135-2.133,4.273-4.27,4.273h-4.174V156.335L577.629,156.335z M577.629,181.772h4.174
								c2.133,0,4.27,2.136,4.27,4.274v16.986c0,2.035-2.133,4.172-4.27,4.172h-4.174V181.772L577.629,181.772z M573.359,207.201
								h-2.135v4.276h10.582c4.673,0,8.54-3.867,8.54-8.442v-16.986c0-2.541-1.118-4.781-2.849-6.408
								c1.729-1.531,2.849-3.766,2.849-6.307v-12.717c0-4.678-3.867-8.443-8.54-8.443h-10.582v4.172h2.133v50.855H573.359z
								 M560.44,207.201h-4.172v4.276h4.172V207.201z"/>
							<path fill="#008FC5" d="M538.362,156.341c2.14,0,4.275,2.133,4.275,4.27v21.162c0,2.133-2.133,4.273-4.275,4.273h-4.167
								v-29.706H538.362z M527.788,207.201v4.276h8.54v-4.276h-2.133v-16.888h4.167c4.683,0,8.545-3.86,8.545-8.541v-21.158
								c0-4.68-3.862-8.445-8.545-8.445h-10.574v4.172h2.132v50.862h-2.132V207.201z M504.285,152.169h-6.407v4.172h2.132v50.862
								h-2.132v4.278h6.407v-41.812l6.306,15.771l6.412-15.771v41.812h6.307v-4.278h-2.133v-50.862h2.133v-4.172h-6.307v5.898
								l-6.412,15.875l-6.306-15.875V152.169z M478.549,159.8c0-2.139,2.136-4.271,4.178-4.271c2.132,0,4.27,2.133,4.27,4.271
								v24.108h-8.442V159.8H478.549z M486.995,211.479h6.407v-4.279h-2.133v-47.403c0-4.68-3.866-8.547-8.539-8.547
								c-4.576,0-8.442,3.867-8.442,8.547v47.403h-2.144v4.278h6.407v-23.296h8.442L486.995,211.479L486.995,211.479z
								 M466.953,161.833v-9.664h-8.438c-4.678,0-8.54,3.766-8.54,8.445v43.23c0,4.68,3.862,8.44,8.54,8.44
								c4.575,0,8.438-3.762,8.438-8.44v-2.138h-4.271v2.138c0,2.135-2.134,4.274-4.174,4.274c-2.132,0-4.275-2.139-4.275-4.274
								v-43.23c0-2.141,2.14-4.273,4.275-4.273h4.174v5.492H466.953z M435.931,156.341v-4.172h-8.545v4.172h2.133v50.86h-2.133
								v4.276h16.992v-14.039h-4.28v9.763h-6.3v-50.86H435.931z M408.062,159.8c0-2.139,2.132-4.271,4.172-4.271
								c2.135,0,4.271,2.133,4.271,4.271v24.108h-8.438L408.062,159.8L408.062,159.8z M416.504,211.479h6.412v-4.279h-2.138v-47.403
								c0-4.68-3.867-8.547-8.542-8.547c-4.579,0-8.441,3.867-8.441,8.547v47.403h-2.137v4.278h6.411v-23.296h8.438v23.297H416.504z
								 M387.915,156.341c2.139,0,4.278,2.133,4.278,4.27v21.162c0,2.133-2.137,4.273-4.278,4.273h-4.167v-29.706H387.915z
								 M377.34,207.201v4.276h8.54v-4.276h-2.132v-16.888h4.167c4.684,0,8.546-3.86,8.546-8.541v-21.158
								c0-4.68-3.862-8.445-8.546-8.445H377.34v4.172h2.132v50.862h-2.132V207.201z M351.807,156.341h2.134v47.504
								c0,4.678,3.767,8.439,8.443,8.439c4.673,0,8.442-3.763,8.442-8.439v-47.504h2.132v-4.172h-6.312v51.676
								c0,2.133-2.132,4.273-4.269,4.273c-2.139,0-4.275-2.14-4.275-4.273v-51.676h-6.306v4.172H351.807z M341.227,177.602
								c0,2.033-2.135,4.172-4.275,4.172h-4.169v-25.432h4.168c2.136,0,4.275,2.133,4.275,4.273L341.227,177.602L341.227,177.602z
								 M345.503,190.313c0-2.541-1.118-4.879-2.854-6.405c1.734-1.525,2.854-3.767,2.854-6.308v-16.986
								c0-4.68-3.867-8.445-8.548-8.445h-10.577v4.172h2.131v50.862h-2.131v4.278h6.407v-25.431h4.17
								c2.137,0,4.275,2.135,4.275,4.273v21.157h6.407v-4.272h-2.132v-16.89h-0.004L345.503,190.313L345.503,190.313z
								 M315.795,160.615v42.42c0,2.03-2.135,4.168-4.271,4.168h-4.174v-50.862h4.175
								C313.655,156.341,315.795,158.475,315.795,160.615 M300.939,152.169v4.172h2.139v50.862h-2.139v4.278h10.585
								c4.674,0,8.539-3.866,8.539-8.438v-42.424c0-4.68-3.865-8.445-8.539-8.445h-10.585V152.169z"/>
							<path fill="#FFFFFF" d="M290.163,207.201h-4.173v4.276h4.173V207.201z M260.154,188.182v-11.086l8.439-15.867v26.957h-8.439
								V188.182z M277.04,192.352v-4.17h-4.172v-36.012h-4.274l-12.716,24.105v16.076h12.716v14.849h-2.133v4.278h8.543v-4.278
								h-2.136v-14.848H277.04z M239.303,207.201v4.276h8.539v-4.276h-2.131v-55.947l-9.664,6.407l2.237,3.359l3.154-2.139v48.316
								h-2.136v0.004H239.303z M216.516,159.8c0-2.139,2.032-4.273,4.173-4.273c2.134,0,4.271,2.135,4.271,4.273v44.045
								c0,2.139-2.134,4.275-4.271,4.275c-2.139,0-4.173-2.131-4.173-4.275V159.8z M212.245,159.8v44.045
								c0,4.68,3.759,8.441,8.438,8.441c4.677,0,8.541-3.763,8.541-8.441V159.8c0-4.678-3.864-8.546-8.541-8.546
								C216.004,151.254,212.245,155.117,212.245,159.8 M198.611,201.707v5.494h-6.305v-12.002l10.582-16.888v-18.515
								c0-4.676-3.867-8.542-8.546-8.542c-4.575,0-8.441,3.862-8.441,8.542v2.037h4.273v-2.037c0-2.135,2.137-4.271,4.173-4.271
								c2.133,0,4.274,2.137,4.274,4.271v17.094l-10.581,16.887v17.701h14.852v-9.77h-4.281V201.707z M178.371,156.335v9.768h4.276
								v-13.938h-20.346v13.938h4.272v-9.768h3.766v50.864h-2.137v4.278h8.543v-4.278h-2.134v-50.864H178.371z M153.142,211.479
								h4.273v-55.143h2.139v-4.166h-6.412v28.18l-8.441-14.039v-14.141h-6.408v4.166h2.136v50.864h-2.136v4.278h6.408v-36.726
								l8.441,14.141V211.479z M131.475,181.772v-4.172h-8.441v-21.26h6.308v5.494h4.274v-9.662h-16.99v4.168h2.136v50.861h-2.136
								v4.279h16.99v-9.766h-4.274v5.492h-6.308v-25.426h8.441V181.772z M97.296,152.169h-6.409v4.172h2.138v50.86h-2.138v4.276
								h6.409v-31.841h8.441v31.842h6.408v-4.277h-2.131v-50.866h2.133v-4.166h-6.407v23.297h-8.441v-23.297H97.296z M78.17,188.182
								h2.544v19.02h-4.172c-2.135,0-4.274-2.131-4.274-4.168v-42.418c0-2.135,2.136-4.273,4.274-4.273h4.172v5.492h4.274v-9.664
								h-8.442c-4.679,0-8.541,3.766-8.541,8.445v42.42c0,4.575,3.862,8.442,8.541,8.442h8.442v-27.569H78.17V188.182L78.17,188.182
								z"/>
						</g>
					</g>
				</g>
			</g>
		</g>
	</g>
	<g enable-background="new    ">
		<path fill="#008FC5" d="M145.515,296.455h-5.851v-31.682h14.194v5.092h-8.343v8.799h7.779v5.092h-7.779V296.455z"/>
		<path fill="#008FC5" d="M163.717,284.125v12.33h-5.894v-31.682h7.714c3.265,0,5.674,0.773,7.227,2.318
			c1.553,1.547,2.33,3.908,2.33,7.086c0,4.002-1.351,6.797-4.052,8.387l6.089,13.891h-6.306l-5.006-12.33H163.717z M163.717,279.055
			h1.517c1.387,0,2.384-0.395,2.99-1.182c0.607-0.787,0.91-1.961,0.91-3.521c0-1.617-0.322-2.77-0.964-3.457
			c-0.643-0.686-1.636-1.029-2.979-1.029h-1.474V279.055z"/>
		<path fill="#008FC5" d="M181.075,296.455v-31.682h5.547v31.682H181.075z"/>
		<path fill="#008FC5" d="M205.388,296.455l8.885-26.416h-11.052v-5.223h16.989v3.988l-8.733,27.65H205.388z"/>
	</g>
	<g enable-background="new    ">
		<path fill="#FFFFFF" d="M251.892,296.455l-1.539-2.211c-1.965,1.764-4.406,2.645-7.324,2.645c-2.774,0-4.927-0.787-6.458-2.363
			c-1.532-1.574-2.297-3.756-2.297-6.543c0-3.584,1.763-6.588,5.288-9.016c-1.113-1.719-1.849-3.076-2.21-4.074
			c-0.361-0.996-0.542-2.051-0.542-3.164c0-2.252,0.701-4.051,2.102-5.395c1.401-1.344,3.243-2.016,5.526-2.016
			c2.195,0,3.944,0.625,5.244,1.875c1.3,1.25,1.951,2.979,1.951,5.189c0,1.518-0.397,2.957-1.192,4.322
			c-0.795,1.365-2.124,2.75-3.987,4.15l4.42,6.219c0.491-0.895,0.874-1.893,1.148-2.99s0.513-2.188,0.715-3.271h5.027
			c-0.549,4.045-1.748,7.643-3.597,10.791l4.204,5.852H251.892z M240.104,287.439c0,1.344,0.317,2.398,0.953,3.164
			s1.502,1.148,2.601,1.148c1.444,0,2.716-0.533,3.814-1.604l-5.201-7.498C240.826,283.951,240.104,285.547,240.104,287.439z
			 M246.301,271.902c0-0.939-0.191-1.621-0.574-2.047s-0.842-0.641-1.376-0.641c-0.665,0-1.192,0.236-1.582,0.705
			s-0.585,1.152-0.585,2.047c0,0.795,0.169,1.529,0.509,2.201c0.339,0.672,0.762,1.354,1.268,2.047
			c0.881-0.68,1.492-1.336,1.831-1.973C246.131,273.607,246.301,272.828,246.301,271.902z"/>
	</g>
	<g enable-background="new    ">
		<path fill="#008FC5" d="M286.975,287.721c0,2.963-0.748,5.23-2.243,6.805c-1.496,1.576-3.651,2.363-6.469,2.363
			c-2.759,0-5.107-0.543-7.042-1.625v-5.83c2.369,1.547,4.543,2.318,6.522,2.318c1.127,0,1.976-0.311,2.546-0.932
			c0.57-0.621,0.856-1.467,0.856-2.535c0-1.055-0.34-2.02-1.019-2.893c-0.679-0.875-1.799-1.846-3.359-2.914
			c-1.358-0.939-2.387-1.84-3.088-2.699s-1.243-1.824-1.625-2.893s-0.574-2.311-0.574-3.727c0-2.717,0.755-4.869,2.265-6.459
			c1.509-1.588,3.536-2.383,6.079-2.383c2.427,0,4.76,0.68,6.999,2.037l-1.95,4.725c-0.693-0.404-1.419-0.766-2.178-1.084
			s-1.571-0.477-2.438-0.477c-0.954,0-1.687,0.314-2.199,0.941c-0.513,0.629-0.77,1.484-0.77,2.568c0,1.07,0.307,2.002,0.921,2.795
			c0.614,0.795,1.687,1.699,3.218,2.709c2.065,1.387,3.507,2.803,4.323,4.248C286.566,284.227,286.975,285.873,286.975,287.721z"/>
		<path fill="#008FC5" d="M305.871,296.455l-1.82-7.996h-8.256l-1.82,7.996h-5.894l7.844-31.812h7.997l7.866,31.812H305.871z
			 M302.945,283.236l-1.69-7.367c-0.101-0.449-0.329-1.572-0.683-3.371s-0.567-3-0.639-3.607c-0.188,1.242-0.426,2.611-0.715,4.105
			c-0.289,1.496-1.04,4.908-2.253,10.24H302.945z"/>
		<path fill="#008FC5" d="M322.795,296.455h-5.873v-26.502h-6.068v-5.18h18.008v5.18h-6.067V296.455z"/>
		<path fill="#008FC5" d="M350.705,264.361c2.471,0,4.442,0.701,5.916,2.102c1.474,1.402,2.21,3.309,2.21,5.721
			c0,1.488-0.343,2.836-1.029,4.043c-0.687,1.205-1.853,2.357-3.5,3.455c1.85,1.314,3.164,2.662,3.944,4.041
			c0.78,1.381,1.17,2.887,1.17,4.52c0,2.586-0.794,4.674-2.384,6.262c-1.589,1.59-3.698,2.385-6.327,2.385
			c-2.73,0-4.868-0.734-6.414-2.199c-1.546-1.467-2.319-3.559-2.319-6.273c0-1.82,0.387-3.428,1.16-4.822
			c0.772-1.395,1.968-2.611,3.586-3.652c-1.503-1.197-2.575-2.408-3.218-3.629c-0.644-1.221-0.965-2.596-0.965-4.129
			c0-2.369,0.762-4.264,2.286-5.688C346.346,265.074,348.307,264.361,350.705,264.361z M347.562,288.111
			c0,1.271,0.264,2.283,0.791,3.033c0.527,0.752,1.282,1.127,2.265,1.127c1.069,0,1.867-0.375,2.395-1.127
			c0.527-0.75,0.791-1.762,0.791-3.033c0-0.91-0.21-1.77-0.628-2.578c-0.42-0.809-1.229-1.74-2.428-2.795l-0.303-0.305
			c-0.939,0.693-1.654,1.484-2.146,2.373S347.562,286.797,347.562,288.111z M350.662,268.934c-0.824,0-1.445,0.301-1.864,0.9
			s-0.628,1.455-0.628,2.566c0,0.955,0.173,1.785,0.52,2.492c0.347,0.709,1.019,1.459,2.016,2.254
			c0.953-0.736,1.606-1.473,1.961-2.211c0.354-0.736,0.531-1.58,0.531-2.535C353.197,270.09,352.352,268.934,350.662,268.934z"/>
	</g>
	<g enable-background="new    ">
		<path fill="#FFFFFF" d="M398.423,296.455h-7.194l-9.795-22.949h-0.282c0.361,1.748,0.542,3.627,0.542,5.635v17.314h-5.461v-31.682
			h7.238l9.708,22.709h0.238c-0.274-1.516-0.412-3.322-0.412-5.416v-17.293h5.418V296.455z"/>
		<path fill="#FFFFFF" d="M425.813,280.57c0,5.244-0.982,9.275-2.947,12.092s-4.774,4.227-8.43,4.227
			c-3.67,0-6.486-1.406-8.451-4.215c-1.965-2.811-2.947-6.859-2.947-12.146c0-5.244,0.982-9.264,2.947-12.059
			c1.965-2.797,4.796-4.193,8.494-4.193c3.655,0,6.458,1.404,8.408,4.215C424.838,271.299,425.813,275.326,425.813,280.57z
			 M409.062,280.57c0,3.611,0.455,6.363,1.365,8.256s2.246,2.84,4.009,2.84c3.554,0,5.331-3.699,5.331-11.096
			s-1.763-11.094-5.288-11.094c-1.791,0-3.142,0.941-4.052,2.826C409.518,274.189,409.062,276.945,409.062,280.57z"/>
		<path fill="#FFFFFF" d="M443.388,264.773h5.938l-7.455,31.682h-7.497l-7.411-31.682h5.938l4.139,19.352
			c0.376,1.646,0.744,4.008,1.105,7.086c0.303-2.615,0.686-4.977,1.148-7.086L443.388,264.773z"/>
		<path fill="#FFFFFF" d="M478.883,296.455h-16.989v-4.4l5.634-7.973c1.546-2.197,2.607-3.826,3.186-4.887
			c0.578-1.062,1.004-2.08,1.278-3.057c0.274-0.975,0.412-1.982,0.412-3.023c0-1.213-0.271-2.123-0.812-2.729
			c-0.542-0.607-1.246-0.91-2.113-0.91c-0.766,0-1.48,0.201-2.146,0.605c-0.664,0.404-1.473,1.135-2.427,2.189l-3.294-3.467
			c1.518-1.721,2.926-2.896,4.226-3.533c1.301-0.635,2.709-0.953,4.226-0.953c2.558,0,4.555,0.752,5.992,2.254
			s2.156,3.59,2.156,6.262c0,1.215-0.13,2.363-0.391,3.445c-0.26,1.084-0.653,2.172-1.181,3.262
			c-0.527,1.092-1.188,2.225-1.982,3.402c-0.795,1.178-2.847,3.875-6.154,8.094v0.174h10.38V296.455z"/>
		<path fill="#FFFFFF" d="M499.772,280.613c0,5.736-0.69,9.883-2.069,12.439c-1.38,2.557-3.602,3.836-6.664,3.836
			s-5.262-1.287-6.599-3.857c-1.336-2.572-2.004-6.711-2.004-12.418c0-5.721,0.7-9.873,2.102-12.459s3.598-3.879,6.588-3.879
			c3.048,0,5.251,1.264,6.609,3.791C499.093,270.596,499.772,274.777,499.772,280.613z M488.33,280.613
			c0,4.436,0.191,7.422,0.574,8.961s1.109,2.309,2.179,2.309c0.722,0,1.281-0.332,1.679-0.998c0.397-0.664,0.683-1.766,0.856-3.305
			c0.173-1.537,0.26-3.859,0.26-6.967c0-4.361-0.202-7.338-0.606-8.928c-0.405-1.588-1.135-2.383-2.188-2.383
			c-1.069,0-1.796,0.791-2.179,2.373S488.33,276.236,488.33,280.613z"/>
		<path fill="#FFFFFF" d="M517.173,296.455h-5.808v-18.594c0-2.021,0.102-4.348,0.304-6.977c-0.102,0.145-0.474,0.584-1.116,1.322
			c-0.643,0.736-1.896,2.059-3.76,3.965l-3.294-3.598l8.43-7.801h5.244V296.455z"/>
		<path fill="#FFFFFF" d="M541.812,289.803h-3.207v6.652h-5.547v-6.652h-10.337v-4.789l9.578-20.24h6.306v20.152h3.207V289.803z
			 M533.058,284.926v-6.674l0.108-2.947l0.151-2.816h-0.174c-0.506,1.574-1.055,2.998-1.646,4.268l-3.813,8.17H533.058z"/>
	</g>
	<line fill="none" stroke="#F26825" stroke-miterlimit="10" x1="231.247" y1="339.078" x2="448.754" y2="339.078"/>
</g>
</svg>
