<?xml version="1.0" encoding="utf-8"?>
<!-- Generator: Adobe Illustrator 15.0.2, SVG Export Plug-In . SVG Version: 6.00 Build 0)  -->
<!DOCTYPE svg PUBLIC "-//W3C//DTD SVG 1.1//EN" "http://www.w3.org/Graphics/SVG/1.1/DTD/svg11.dtd">
<svg version="1.1" id="Layer_1" xmlns="http://www.w3.org/2000/svg" xmlns:xlink="http://www.w3.org/1999/xlink" x="0px" y="0px"
	 width="680px" height="108px" viewBox="0 55.5 680 108" enable-background="new 0 55.5 680 108" xml:space="preserve">
<g>
	<g enable-background="new    ">
		<path fill="#008FC5" d="M29.845,69.362c6.345,0,11.586,5.104,11.586,11.448v57.517c0,6.206-5.241,11.448-11.586,11.448
			c-2.207,0-14.345,0-14.345,0v-5.794h2.896V75.016H15.5v-5.654C15.5,69.362,27.639,69.362,29.845,69.362z M29.845,75.018
			c-2.207,0-5.654,0-5.654,0v68.965c0,0,3.448,0,5.654,0c2.896,0,5.794-2.896,5.794-5.655V80.811
			C35.64,77.914,32.742,75.018,29.845,75.018z"/>
		<path fill="#008FC5" d="M75.916,143.982h2.896v5.793h-8.69v-28.688c0-2.898-2.896-5.795-5.793-5.795c-1.241,0-3.725,0-5.656,0
			v34.482h-8.689v-5.793h2.896V75.018h-2.896v-5.655c0,0,12.137,0,14.345,0c6.344,0,11.585,5.104,11.585,11.448v23.035
			c0,3.449-1.517,6.482-3.861,8.551c2.344,2.069,3.861,5.241,3.861,8.691v22.895H75.916z M70.122,80.811
			c0-2.896-2.896-5.793-5.793-5.793c-2.208,0-5.656,0-5.656,0V109.5c0,0,4.551,0,5.656,0c2.896,0,5.793-2.896,5.793-5.654V80.811z"
			/>
		<path fill="#008FC5" d="M84.466,69.362h8.551v70.067c0,2.897,2.898,5.794,5.794,5.794s5.793-2.896,5.793-5.794V69.362h8.552v5.655
			h-2.896v64.412c0,6.346-5.104,11.448-11.449,11.448c-6.346,0-11.449-5.104-11.449-11.448V75.018h-2.896V69.362z"/>
		<path fill="#008FC5" d="M121.983,143.982V75.018c-1.654,0-2.896,0-2.896,0v-5.655c0,0,12.138,0,14.345,0
			c6.344,0,11.585,5.104,11.585,11.448V109.5c0,6.345-5.241,11.585-11.585,11.585c-1.103,0-3.586,0-5.655,0v22.896h2.896v5.794
			h-11.585v-5.794L121.983,143.982L121.983,143.982z M127.776,75.018v40.274c2.069,0,4.552,0,5.655,0
			c2.896,0,5.793-2.896,5.793-5.793V80.811c0-2.896-2.897-5.793-5.793-5.793C132.465,75.018,130.26,75.018,127.776,75.018z"/>
		<path fill="#008FC5" d="M172.19,118.189h-11.449v31.586h-8.69v-5.793h2.896V79.708c0-6.346,5.241-11.587,11.449-11.587
			c6.344,0,11.585,5.241,11.585,11.587v64.274h2.896v5.793h-8.69v-31.586H172.19z M160.742,112.396h11.449V79.708
			c0-2.897-2.896-5.795-5.793-5.795c-2.759,0-5.655,2.897-5.655,5.795V112.396L160.742,112.396z"/>
		<path fill="#008FC5" d="M195.638,75.018v68.965h8.551v-13.239h5.794v19.032h-23.036v-5.793h2.896V75.018h-2.896v-5.655h11.586
			v5.655H195.638L195.638,75.018z"/>
		<path fill="#008FC5" d="M234.809,82.465v-7.447c0,0-4.551,0-5.655,0c-2.896,0-5.792,2.897-5.792,5.795v58.619
			c0,2.896,2.896,5.793,5.792,5.793c2.76,0,5.655-2.896,5.655-5.793v-2.897h5.793v2.897c0,6.346-5.241,11.448-11.449,11.448
			c-6.344,0-11.584-5.104-11.584-11.448V80.811c0-6.347,5.241-11.448,11.584-11.448c1.105,0,11.449,0,11.449,0v13.103H234.809z"/>
		<path fill="#008FC5" d="M267.775,118.189h-11.449v31.586h-8.691v-5.793h2.897V79.708c0-6.346,5.241-11.587,11.448-11.587
			c6.345,0,11.586,5.241,11.586,11.587v64.274h2.896v5.793h-8.689v-31.586H267.775z M256.327,112.396h11.449V79.708
			c0-2.897-2.897-5.795-5.794-5.795c-2.759,0-5.654,2.897-5.654,5.795V112.396L256.327,112.396z"/>
		<path fill="#008FC5" d="M291.221,77.362l8.552,21.517l8.689-21.517v-8h8.551v5.655h-2.897v68.965h2.897v5.793h-8.551V93.086
			l-8.689,21.38l-8.552-21.38v56.689h-8.69v-5.793h2.897V75.018h-2.897v-5.655h8.69V77.362L291.221,77.362z"/>
		<path fill="#008FC5" d="M325.979,143.982V75.018c-1.656,0-2.897,0-2.897,0v-5.655c0,0,12.138,0,14.345,0
			c6.345,0,11.587,5.104,11.587,11.448V109.5c0,6.345-5.243,11.585-11.587,11.585c-1.103,0-3.586,0-5.655,0v22.896h2.898v5.794
			h-11.586v-5.794L325.979,143.982L325.979,143.982z M331.771,75.018v40.274c2.069,0,4.553,0,5.655,0
			c2.896,0,5.793-2.896,5.793-5.793V80.811c0-2.896-2.896-5.793-5.793-5.793C336.462,75.018,334.255,75.018,331.771,75.018z"/>
	</g>
	<g enable-background="new    ">
		<path fill="#F26825" d="M389.566,112.396h9.24v37.379c0,0-10.345,0-11.446,0c-6.347,0-11.587-5.24-11.587-11.448V80.811
			c0-6.347,5.241-11.448,11.587-11.448c1.102,0,11.446,0,11.446,0v13.103h-5.793v-7.447c0,0-4.554,0-5.653,0
			c-2.897,0-5.795,2.897-5.795,5.795v57.515c0,2.76,2.897,5.655,5.795,5.655c1.102,0,5.653,0,5.653,0v-25.793h-3.448
			L389.566,112.396L389.566,112.396z"/>
		<path fill="#F26825" d="M415.497,100.948h11.449V69.362h8.688v5.655h-2.896v68.965h2.896v5.793h-8.688v-43.172h-11.449v43.172
			h-8.689v-5.793h2.896V75.018h-2.896v-5.655h8.689V100.948z"/>
		<path fill="#F26825" d="M450.394,109.5v34.482h8.552v-7.448h5.793v13.241h-23.035v-5.793h2.896V75.018h-2.896v-5.655h23.035
			v13.103h-5.793v-7.447h-8.552v28.828h11.447v5.654H450.394L450.394,109.5z"/>
		<path fill="#F26825" d="M491.22,119.154l-11.447-19.172v49.793h-8.691v-5.794h2.897V75.016h-2.897v-5.654h8.691v19.173
			l11.447,19.034V69.361h8.691v5.654h-2.898v74.758h-5.794L491.22,119.154L491.22,119.154z"/>
		<path fill="#F26825" d="M520.323,75.018v68.965h2.896v5.793h-11.586v-5.793h2.897V75.018h-5.104v13.239h-5.793V69.361h27.585
			v18.896h-5.793V75.018H520.323z"/>
	</g>
	<g enable-background="new    ">
		<path fill="#F26825" d="M563.951,136.534v13.241h-20.139v-23.999l14.345-22.897V79.708c0-2.897-2.896-5.795-5.793-5.795
			c-2.758,0-5.656,2.897-5.656,5.795v2.757h-5.793v-2.757c0-6.346,5.242-11.587,11.449-11.587c6.344,0,11.585,5.241,11.585,11.587
			v25.103l-14.343,22.896v16.274h8.55v-7.447H563.951L563.951,136.534z"/>
		<path fill="#F26825" d="M588.089,68.121c6.344,0,11.586,5.241,11.586,11.587v59.722c0,6.346-5.243,11.448-11.586,11.448
			c-6.346,0-11.449-5.104-11.449-11.448V79.708C576.64,73.362,581.743,68.121,588.089,68.121z M582.434,139.43
			c0,2.897,2.757,5.794,5.653,5.794c2.896,0,5.794-2.896,5.794-5.794V79.708c0-2.897-2.898-5.795-5.794-5.795
			c-2.897,0-5.653,2.897-5.653,5.795V139.43z"/>
		<path fill="#F26825" d="M616.226,143.982V78.466l-4.275,2.896l-3.034-4.552l13.103-8.69v75.861h2.898v5.794h-11.586v-5.794
			L616.226,143.982L616.226,143.982z"/>
		<path fill="#F26825" d="M658.845,123.846v20.137h2.897v5.793h-11.586v-5.793h2.896v-20.137h-17.241v-21.793l17.241-32.69h5.794
			v48.827h5.654v5.656H658.845L658.845,123.846z M653.052,118.189V81.64l-11.448,21.516v15.034H653.052z"/>
	</g>
</g>
</svg>
