<?xml version="1.0" encoding="utf-8"?>
<!-- Generator: Adobe Illustrator 15.0.2, SVG Export Plug-In . SVG Version: 6.00 Build 0)  -->
<!DOCTYPE svg PUBLIC "-//W3C//DTD SVG 1.1//EN" "http://www.w3.org/Graphics/SVG/1.1/DTD/svg11.dtd">
<svg version="1.1" id="Layer_1" xmlns="http://www.w3.org/2000/svg" xmlns:xlink="http://www.w3.org/1999/xlink" x="0px" y="0px"
	 width="412px" height="83px" viewBox="0 0 412 83" enable-background="new 0 0 412 83" xml:space="preserve">
<g>
	<path fill="#FFFFFF" d="M34.982,22.264c3.035,1.359,5.542,3.504,7.523,6.434c1.777,2.586,2.934,5.582,3.465,8.994
		c0.304,1.998,0.426,4.875,0.371,8.633H14.659c0.175,4.365,1.692,7.426,4.548,9.182c1.736,1.092,3.827,1.639,6.274,1.639
		c2.592,0,4.694-0.668,6.312-2c0.887-0.717,1.668-1.715,2.342-2.992h11.614c-0.306,2.58-1.714,5.201-4.217,7.863
		c-3.897,4.23-9.353,6.348-16.366,6.348c-5.794,0-10.896-1.785-15.324-5.355c-4.426-3.566-6.637-9.375-6.637-17.416
		c0-7.535,1.996-13.312,5.992-17.334s9.179-6.033,15.555-6.033C28.542,20.225,31.949,20.904,34.982,22.264 M17.968,32.088
		c-1.607,1.66-2.619,3.9-3.031,6.734h19.597c-0.205-3.02-1.217-5.311-3.028-6.873c-1.813-1.562-4.062-2.346-6.748-2.346
		C21.837,29.604,19.575,30.432,17.968,32.088"/>
	<path fill="#FFFFFF" d="M87.174,23.875c2.849,2.355,4.271,6.262,4.271,11.715v29.295H79.795V38.424c0-2.287-0.304-4.045-0.914-5.27
		c-1.108-2.234-3.224-3.352-6.339-3.352c-3.83,0-6.458,1.637-7.881,4.908c-0.742,1.732-1.11,3.938-1.11,6.627v23.547H52.174V21.461
		h11.019v6.348c1.453-2.238,2.83-3.846,4.131-4.83c2.332-1.756,5.287-2.635,8.865-2.635C80.667,20.344,84.328,21.521,87.174,23.875"
		/>
	<path fill="#FFFFFF" d="M97.555,29.883v-8.102h6.065V9.648h11.254v12.133h7.067v8.102h-7.067v22.986
		c0,1.783,0.229,2.895,0.679,3.336c0.454,0.439,1.837,0.656,4.151,0.656c0.348,0,0.713-0.006,1.099-0.018
		c0.384-0.012,0.764-0.033,1.139-0.061v8.5l-5.389,0.203c-5.376,0.184-9.047-0.748-11.017-2.797
		c-1.278-1.305-1.916-3.312-1.916-6.027V29.883H97.555z"/>
	<path fill="#FFFFFF" d="M140.94,16.193h-11.537V5.695h11.537V16.193z M129.403,21.381h11.537v43.504h-11.537V21.381z"/>
	<path fill="#FFFFFF" d="M147.484,29.883v-8.102h6.066V9.648h11.254v12.133h7.066v8.102h-7.066v22.986
		c0,1.783,0.228,2.895,0.682,3.336c0.45,0.439,1.834,0.656,4.148,0.656c0.347,0,0.711-0.006,1.099-0.018
		c0.387-0.012,0.767-0.033,1.138-0.061v8.5l-5.389,0.203c-5.376,0.184-9.046-0.748-11.016-2.797
		c-1.278-1.305-1.916-3.312-1.916-6.027V29.883H147.484z"/>
	<path fill="#FFFFFF" d="M180.89,73.227l1.438,0.08c1.117,0.055,2.181,0.012,3.192-0.121c1.013-0.131,1.862-0.438,2.556-0.916
		c0.666-0.453,1.281-1.398,1.854-2.834c0.569-1.436,0.819-2.314,0.739-2.635l-15.986-45.42h12.652l9.5,32.09l8.98-32.09h12.092
		l-14.915,42.787c-2.881,8.248-5.16,13.363-6.84,15.346c-1.682,1.98-5.035,2.975-10.07,2.975c-1.014,0-1.823-0.01-2.437-0.021
		c-0.61-0.016-1.532-0.059-2.757-0.139V73.227z"/>
	<path fill="#FFFFFF" d="M286.309,58.732c-3.461,4.27-8.711,6.404-15.754,6.404c-7.041,0-12.291-2.135-15.752-6.404
		c-3.459-4.268-5.188-9.414-5.188-15.42c0-5.908,1.729-11.031,5.188-15.365c3.461-4.328,8.711-6.496,15.752-6.496
		c7.043,0,12.293,2.168,15.754,6.496c3.459,4.334,5.188,9.457,5.188,15.365C291.496,49.318,289.768,54.465,286.309,58.732
		 M277.736,52.809c1.678-2.227,2.518-5.393,2.518-9.496s-0.84-7.266-2.518-9.48c-1.68-2.211-4.084-3.32-7.219-3.32
		s-5.545,1.109-7.238,3.32c-1.688,2.215-2.535,5.377-2.535,9.48s0.848,7.27,2.535,9.496c1.693,2.229,4.104,3.342,7.238,3.342
		S276.057,55.037,277.736,52.809"/>
	<path fill="#FFFFFF" d="M332.211,25.115c2.684,2.219,4.021,5.898,4.021,11.035v27.594h-10.977V38.818
		c0-2.154-0.289-3.807-0.859-4.963c-1.045-2.105-3.033-3.156-5.971-3.156c-3.609,0-6.084,1.541-7.426,4.623
		c-0.695,1.631-1.045,3.711-1.045,6.242v22.18H299.24V22.842h10.375v5.979c1.373-2.107,2.668-3.621,3.891-4.549
		c2.199-1.654,4.98-2.482,8.354-2.482C326.074,21.789,329.521,22.898,332.211,25.115"/>
	<path fill="#FFFFFF" d="M372.896,23.596c2.857,1.283,5.219,3.303,7.084,6.062c1.678,2.434,2.76,5.258,3.264,8.471
		c0.287,1.883,0.404,4.592,0.35,8.135H353.75c0.17,4.109,1.6,6.992,4.285,8.645c1.637,1.027,3.604,1.543,5.91,1.543
		c2.438,0,4.424-0.625,5.945-1.879c0.834-0.678,1.568-1.617,2.205-2.818h10.939c-0.285,2.428-1.609,4.896-3.971,7.402
		c-3.67,3.986-8.809,5.98-15.414,5.98c-5.459,0-10.271-1.682-14.436-5.043c-4.168-3.359-6.252-8.832-6.252-16.406
		c0-7.098,1.879-12.541,5.645-16.328s8.646-5.686,14.654-5.686C366.828,21.674,370.041,22.316,372.896,23.596 M356.873,32.852
		c-1.518,1.562-2.469,3.676-2.857,6.344h18.457c-0.195-2.846-1.146-5.004-2.857-6.477c-1.705-1.473-3.822-2.207-6.354-2.207
		C360.514,30.512,358.381,31.291,356.873,32.852"/>
	<polygon fill="#FFFFFF" points="250.865,12.049 250.865,0.512 225.756,0.512 225.756,12.049 225.756,69.645 225.756,81.182 
		250.865,81.182 250.865,69.645 237.293,69.645 237.293,12.049 	"/>
	<polygon fill="#FFFFFF" points="383.686,12.049 383.686,0.512 408.795,0.512 408.795,12.049 408.795,69.645 408.795,81.182 
		383.686,81.182 383.686,69.645 397.258,69.645 397.258,12.049 	"/>
</g>
</svg>
